<?xml version="1.0" encoding="utf-8"?>
<svg version="1.0" width="307.000000pt" height="253.000000pt" viewBox="0 0 307.000000 253.000000" preserveAspectRatio="xMidYMid meet" xmlns="http://www.w3.org/2000/svg">
  <g transform="translate(0.000000,253.000000) scale(0.100000,-0.100000)" fill="#000000" stroke="none">
    <path d="M 304 2449.113 C 211 2426.113 185.02 2403.566 144.02 2314.566 L 134.586 2246.623 L 130.397 1260 L 126.208 273.377 L 135.642 213.811 C 166.642 146.811 143.679 152.02 222.245 107.454 L 282.434 79.454 L 1545.811 71.076 L 2717.036 75.265 L 2802.357 107.453 C 2868.356 154.823 2908.225 163.566 2939.225 230.566 L 2952.848 277.566 L 2965.414 1239.056 L 2965.414 2246.623 L 2962.547 2315.189 C 2930.547 2381.189 2893.868 2421.056 2826.868 2452.056 L 2817.566 2453.113 L 1578.377 2446.735 C 899.377 2446.735 321 2453.113 304 2449.113 Z M 2831.755 2398.454 C 2853.755 2387.454 2876.377 2362.642 2893.377 2339.642 C 2919.377 2302.642 2915 2230 2918 2145 C 2921 2093 2908.908 1944.079 2908.623 1941.093 C 2906.623 1920.149 2890.189 1978.224 2858.189 1994.224 L 2799.189 2021.226 L 1578.51 2037.98 L 286.623 2037.981 L 243 2019.357 C 214 2003.357 192.189 1949.47 189.189 1949.47 C 180.189 1949.47 189.441 2192.508 191 2233 C 192.81 2280 211.363 2349.91 307.811 2396.698 C 354.063 2419.135 833.944 2418.265 1580.944 2417.265 C 2791.944 2415.265 2791.755 2419.454 2831.755 2398.454 Z M 2760.623 1990.944 C 2862.623 1961.944 2920 1864 2920 1732 L 2915.811 1523.149 L 2862.189 1575.093 L 2779.245 1610.282 L 1554.189 1635.414 L 341.699 1618.659 L 253.565 1587.659 L 190.566 1526.337 L 182 1749 C 185 1832 190 1851 213 1887 C 239 1928 263.434 1970.755 317.434 1987.755 C 355.434 1998.755 2720.623 2002.944 2760.623 1990.944 Z M 2763 1581 C 2821 1567 2868 1530 2895 1476 C 2916 1435 2920 1412 2920 1343 L 2928.377 1184.602 L 2560.189 1176.226 C 2232.189 1176.226 2236.265 1186.791 2181.265 1169.791 C 2076.265 1136.791 2001.265 1064.603 1940.265 945.603 C 1848.265 764.603 1564.433 678.225 1379.433 761.225 C 1309.433 792.225 1198.925 862.037 1163.925 933.037 C 1102.925 1052.037 1070.811 1124.226 964.811 1157.226 C 909.811 1174.226 892.943 1176.226 564.943 1176.226 L 180 1184.603 L 180 1343 C 180 1401 186 1437 199 1465 C 220 1512 279 1567 318 1576 C 333 1579 354.189 1591.377 355 1585 C 379 1593 2729 1589 2763 1581 Z M 965 1103 C 1018 1075 1048 1041 1101 950 C 1179 816 1286 732 1426 696 C 1593 653 1784 704 1905 825 C 1933 852 1977 912 2004 958 C 2057 1049 2110 1101 2169 1118 C 2195 1126 2322 1130 2564 1130 L 2920 1130 L 2920 728 C 2920 475 2916 311 2909 287 C 2895 236 2832 176 2778 161 C 2746 152 2427 150 1524 152 L 314 155 L 247.868 169.434 C 225.868 184.434 205.245 217.623 192.245 238.623 L 185 285 L 182 708 L 179 1131 L 552 1128 C 912 1125 926 1124 965 1103 Z"/>
  </g>
</svg>