<svg xmlns="http://www.w3.org/2000/svg" version="1.1" viewBox="143.95 206.08 464.11 339.84">
 <path d="m179.95 206.08c-19.863 0-36 16.137-36 36v267.84c0 19.863 16.137 36 36 36h392.1c19.863 0 36.008-16.137 36.008-36v-267.84c0-19.863-16.148-36-36.008-36zm0 9.4727h136.86v70.844c-13.766 5.8867-24.84 16.758-30.773 30.402h-132.61v-74.719c0-14.777 11.75-26.527 26.527-26.527zm146.33 0h99.453v73.609c0.003907 2 1.2617 3.7852 3.1445 4.457 13.738 4.8828 24.586 15.699 29.496 29.422h0.003906c0.007812 0.027343 0.019531 0.058593 0.027344 0.085937 0.45312 1.2695 0.85156 2.5625 1.2031 3.875 0.003907 0 0.015626 0.046875 0.019532 0.066406 0.33203 1.2422 0.60156 2.5117 0.83203 3.793 0.019531 0.10547 0.046875 0.20703 0.066406 0.3125 0.1875 1.0742 0.32031 2.168 0.43359 3.2656 0.03125 0.32812 0.09375 0.64453 0.12109 0.97266 0.11719 1.3594 0.17578 2.7422 0.17578 4.1328v72.906c0 1.3945-0.058594 2.7734-0.17578 4.1328-0.027344 0.32812-0.085938 0.64453-0.12109 0.97266-0.11719 1.0977-0.24609 2.1914-0.43359 3.2656-0.019531 0.10547-0.046875 0.20703-0.066406 0.3125-0.23438 1.2812-0.50391 2.5469-0.83203 3.793-0.003906 0-0.015625 0.046874-0.019532 0.066406-0.35156 1.3125-0.75 2.6055-1.2031 3.875-0.007813 0.023437-0.011719 0.050781-0.019532 0.074218-4.9102 13.73-15.766 24.547-29.508 29.434h0.003906c-1.8867 0.67188-3.1445 2.457-3.1484 4.457v73.609h-99.453v-73.609h0.003906c-0.003906-2-1.2617-3.7852-3.1445-4.457-13.738-4.8828-24.586-15.699-29.496-29.422-0.003907 0-0.003907 0-0.007813-0.046875l-0.003906-0.003906c-0.007812-0.019531-0.011719-0.035156-0.019531-0.054688-0.45312-1.2695-0.85156-2.5625-1.2031-3.875-0.003906 0-0.015625-0.046874-0.019532-0.066406-0.33203-1.2422-0.60156-2.5117-0.83203-3.793-0.019531-0.10547-0.046875-0.20703-0.066406-0.3125-0.1875-1.0742-0.32031-2.1641-0.43359-3.2656-0.03125-0.32812-0.09375-0.64453-0.12109-0.97266-0.11719-1.3594-0.17578-2.7422-0.17578-4.1328v-72.906c0-1.3945 0.058594-2.7734 0.17578-4.1328 0.027343-0.32812 0.085937-0.64453 0.12109-0.97266 0.11719-1.0977 0.24609-2.1914 0.43359-3.2656 0.019531-0.10547 0.046875-0.20703 0.066406-0.3125 0.23438-1.2812 0.50391-2.5469 0.83203-3.793 0.003907 0 0.015626-0.046875 0.019532-0.066406 0.35156-1.3125 0.75-2.6055 1.2031-3.875 0.007812-0.023437 0.011719-0.050781 0.019531-0.074219 4.9102-13.73 15.766-24.547 29.508-29.434 1.8828-0.67187 3.1406-2.457 3.1445-4.457v-73.609zm108.92 0h136.85c14.777 0 26.539 11.75 26.539 26.527v74.719h-132.61c-5.9336-13.645-17.008-24.52-30.773-30.402zm-281.78 110.72h129.42c-1.0117 4.2539-1.5547 8.6914-1.5547 13.273v72.906c0 4.582 0.54297 9.0195 1.5547 13.273h-129.42zm315.75 0h129.42v99.453h-129.42c1.0117-4.2539 1.5547-8.6914 1.5547-13.273v-72.906c0-4.582-0.54297-9.0195-1.5547-13.273zm-315.75 108.92h132.61c5.9336 13.645 17.008 24.516 30.773 30.402v70.852h-136.86c-14.777 0-26.527-11.75-26.527-26.527zm312.55 0h132.61v74.727c0 14.777-11.758 26.527-26.539 26.527h-136.85v-70.852c13.766-5.8867 24.84-16.758 30.773-30.402z"/>
</svg>