<?xml version="1.0" standalone="no"?>
<!DOCTYPE svg PUBLIC "-//W3C//DTD SVG 20010904//EN"
 "http://www.w3.org/TR/2001/REC-SVG-20010904/DTD/svg10.dtd">
<svg version="1.0" xmlns="http://www.w3.org/2000/svg"
 width="227.000000pt" height="177.000000pt" viewBox="0 0 227.000000 177.000000"
 preserveAspectRatio="xMidYMid meet">

<g transform="translate(0.000000,177.000000) scale(0.100000,-0.100000)"
fill="#000000" stroke="none">
<path d="M492 1758 c-9 -9 -12 -76 -12 -243 l0 -231 -68 -17 c-176 -46 -332
-200 -388 -385 -75 -249 53 -541 286 -656 165 -80 314 -84 502 -11 17 7 18 -2
18 -104 l0 -111 720 0 720 0 0 735 0 735 -170 0 -169 0 -3 148 -3 147 -710 3
c-545 2 -714 -1 -723 -10z m1398 -153 l0 -115 -680 0 -680 0 0 115 0 115 680
0 680 0 0 -115z m0 -715 l0 -560 -262 0 -262 0 34 35 34 35 27 -26 c15 -15 34
-24 42 -21 7 3 24 32 36 66 l22 60 117 3 117 3 0 85 0 85 -82 3 -82 3 17 44
16 44 66 3 65 3 0 300 0 300 -585 0 -585 0 -3 -32 c-3 -32 -5 -33 -48 -33
l-44 0 0 80 0 80 680 0 680 0 0 -560z m340 425 l0 -115 -150 0 -150 0 0 115 0
115 150 0 150 0 0 -115z m-472 -257 l2 -258 -39 0 c-22 0 -41 5 -43 12 -3 9
-15 9 -49 -1 -30 -8 -115 -11 -273 -9 l-229 3 -12 53 c-7 28 -26 79 -42 112
l-30 60 297 0 c248 0 300 2 310 15 6 8 9 19 5 25 -4 6 -114 10 -325 10 l-318
0 -57 55 -57 55 378 2 c329 3 379 5 379 18 0 13 -56 16 -425 20 -410 5 -427 6
-482 28 -32 12 -64 22 -73 22 -8 0 -15 9 -15 20 0 20 5 20 548 18 l547 -3 3
-257z m-1216 119 c-1 -37 -1 -75 -1 -86 -1 -14 -11 -21 -38 -26 -106 -19 -203
-96 -249 -198 -24 -52 -28 -75 -28 -142 0 -51 6 -93 16 -116 l16 -36 -75 -43
c-86 -49 -82 -50 -113 49 -22 70 -26 196 -9 271 30 132 147 279 269 339 58 28
181 63 204 57 4 -1 8 -32 8 -69z m158 52 c71 -16 171 -75 230 -134 30 -30 52
-56 49 -58 -2 -2 -34 -25 -70 -50 l-66 -47 -39 37 c-43 40 -118 78 -176 88
l-38 7 0 89 0 89 33 -6 c17 -3 52 -10 77 -15z m1530 -629 l0 -560 -680 0 -680
0 0 104 c0 104 0 105 29 125 23 17 44 21 104 21 l76 0 59 -55 c33 -30 64 -55
69 -55 5 0 33 25 63 55 47 47 60 55 92 55 l38 0 0 -50 0 -50 370 0 371 0 -3
87 -3 88 -102 3 -103 3 0 44 0 45 105 0 105 0 0 300 c0 233 -3 300 -12 301 -7
0 -53 1 -103 2 l-90 2 -3 48 -3 47 150 0 151 0 0 -560z m-1610 290 l5 -135
124 -3 124 -3 -6 -51 c-18 -151 -144 -268 -289 -268 l-48 0 0 301 0 300 43 -3
42 -3 5 -135z m1480 -130 l0 -260 -85 0 -85 0 0 119 0 120 32 3 c47 4 51 35 6
40 -32 3 -33 4 -36 56 l-3 52 31 0 c19 0 33 6 37 16 7 19 -13 34 -44 34 -20 0
-23 5 -23 40 l0 40 85 0 85 0 0 -260z m-1620 -35 c0 -157 -3 -285 -7 -285 -21
0 -115 64 -137 93 -88 115 -89 278 -4 381 33 40 112 96 135 96 10 0 13 -57 13
-285z m223 269 c63 -32 120 -97 147 -169 l10 -25 -100 0 -100 0 0 105 c0 58 2
105 5 105 4 0 20 -7 38 -16z m333 -45 c37 -73 57 -180 50 -259 -7 -68 -41
-186 -57 -195 -7 -5 -149 70 -149 78 0 1 7 24 15 51 21 68 19 146 -6 218 -11
33 -17 64 -12 68 11 11 126 90 129 90 2 0 15 -23 30 -51z m538 -315 c-25 -65
-55 -143 -66 -172 l-20 -54 -29 28 -29 28 -112 -118 -113 -117 -47 48 -47 48
104 110 c57 61 104 116 105 124 0 8 -9 24 -20 36 l-19 21 167 71 c92 39 168
70 170 69 1 -2 -18 -57 -44 -122z m-105 111 c-3 -2 -49 -22 -102 -45 -82 -34
-108 -40 -167 -40 l-70 0 0 45 0 45 172 0 c94 0 169 -2 167 -5z m-229 -156
c44 -45 28 -59 -66 -59 -41 0 -74 3 -74 6 0 4 5 24 12 45 11 37 13 39 54 39
34 0 48 -6 74 -31z m520 -14 l0 -45 -90 0 -89 0 17 45 16 45 73 0 73 0 0 -45z
m-1444 -85 c79 -87 225 -128 339 -96 70 21 96 36 157 94 l46 45 68 -39 c37
-22 69 -44 71 -50 6 -17 -90 -118 -147 -154 -84 -54 -172 -80 -275 -80 -106 0
-170 15 -256 61 -63 34 -155 115 -177 155 -11 20 -6 25 56 63 37 22 70 40 75
41 4 0 23 -18 43 -40z m807 -85 c-61 -68 -71 -75 -105 -75 -21 0 -38 2 -38 5
0 3 16 26 36 52 20 27 41 58 47 71 9 19 18 22 69 22 l59 0 -68 -75z m977 -130
l0 -45 -330 0 -330 0 0 30 0 30 245 0 c211 0 245 2 245 15 0 12 16 15 85 15
l85 0 0 -45z"/>
<path d="M620 1611 c0 -27 19 -36 37 -18 18 18 9 37 -18 37 -12 0 -19 -7 -19
-19z"/>
<path d="M793 1614 c-3 -8 -1 -20 5 -26 16 -16 42 -2 42 22 0 24 -38 28 -47 4z"/>
<path d="M967 1616 c-3 -8 1 -20 9 -27 12 -10 18 -9 31 3 8 9 12 21 9 27 -10
16 -43 14 -49 -3z"/>
</g>
</svg>
