<?xml version="1.0" standalone="no"?>
<!DOCTYPE svg PUBLIC "-//W3C//DTD SVG 20010904//EN"
 "http://www.w3.org/TR/2001/REC-SVG-20010904/DTD/svg10.dtd">
<svg version="1.0" xmlns="http://www.w3.org/2000/svg"
 width="2399.000000pt" height="1417.000000pt" viewBox="0 0 2399.000000 1417.000000"
 preserveAspectRatio="xMidYMid meet">

<g transform="translate(0.000000,1417.000000) scale(0.100000,-0.100000)"
fill="#000000" stroke="none">
<path d="M6890 14139 c-1865 -131 -3558 -965 -4796 -2364 -1603 -1810 -2154
-4351 -1448 -6677 575 -1896 1959 -3488 3752 -4318 743 -343 1465 -538 2322
-626 210 -21 820 -30 1060 -15 1476 92 2851 621 3985 1535 39 31 73 56 78 56
4 0 60 -42 125 -93 1115 -886 2475 -1406 3920 -1498 241 -15 839 -7 1067 15
1202 117 2289 504 3279 1169 1096 737 1976 1791 2508 3006 422 965 626 2045
580 3084 -37 838 -194 1578 -493 2328 -561 1404 -1571 2600 -2861 3387 -917
560 -1920 892 -3013 998 -366 35 -998 30 -1390 -12 -1309 -139 -2570 -654
-3597 -1471 -65 -51 -121 -93 -125 -93 -5 0 -39 25 -78 56 -369 298 -799 575
-1220 789 -857 434 -1762 680 -2743 745 -176 12 -742 11 -912 -1z m795 -509
c1333 -72 2581 -544 3663 -1387 l83 -65 -118 -122 c-678 -695 -1182 -1474
-1533 -2366 -50 -127 -180 -504 -180 -522 0 -4 120 -8 268 -8 l267 0 63 177
c173 482 428 987 717 1418 234 350 525 703 814 990 l101 100 121 -120 c665
-660 1195 -1487 1513 -2360 30 -82 57 -162 61 -177 l7 -28 269 0 c180 0 269 3
269 10 0 20 -82 265 -142 425 -181 480 -422 952 -702 1375 -261 394 -518 712
-869 1076 -70 73 -127 134 -127 137 0 17 386 300 585 427 913 587 1899 918
3010 1011 198 17 767 17 970 1 1135 -92 2161 -441 3085 -1049 1537 -1012 2567
-2607 2854 -4418 59 -374 70 -534 70 -1015 0 -481 -11 -641 -70 -1015 -184
-1162 -673 -2239 -1426 -3143 -1055 -1265 -2544 -2083 -4163 -2287 -1178 -148
-2345 18 -3420 486 -337 146 -749 374 -1055 584 -83 57 -356 260 -415 308
l-29 24 161 169 c252 265 390 427 587 687 392 520 724 1123 954 1732 60 160
142 405 142 425 0 7 -89 10 -269 10 l-269 0 -7 -27 c-15 -61 -120 -337 -190
-503 -318 -745 -809 -1466 -1390 -2040 l-116 -115 -159 162 c-500 513 -880
1052 -1196 1698 -118 241 -208 454 -284 673 l-54 152 -268 0 c-147 0 -268 -4
-268 -8 0 -19 131 -398 184 -531 352 -891 846 -1654 1529 -2358 l118 -121 -98
-76 c-1477 -1144 -3258 -1596 -5078 -1290 -894 150 -1791 511 -2540 1022
-1522 1038 -2532 2649 -2789 4452 -51 358 -60 497 -60 930 0 433 9 572 60 930
257 1803 1270 3419 2789 4452 1159 788 2574 1183 3970 1108z"/>
<path d="M21548 8658 c-3 -7 -42 -211 -88 -453 -46 -242 -86 -443 -90 -448 -3
-4 -44 30 -91 76 -99 98 -152 136 -234 167 -53 21 -81 24 -245 28 -208 4 -343
-11 -460 -52 -293 -101 -513 -368 -670 -811 -85 -242 -119 -458 -100 -652 40
-423 266 -765 575 -869 72 -24 90 -26 185 -22 161 8 343 64 490 152 l58 34 39
-92 40 -91 354 -3 355 -2 282 1512 c155 832 282 1519 282 1526 0 9 -75 12
-339 12 -262 0 -340 -3 -343 -12z m-573 -1212 c50 -21 125 -95 147 -144 46
-103 61 -311 33 -457 -15 -82 -88 -248 -146 -332 -107 -156 -233 -233 -380
-233 -89 0 -163 32 -229 99 -151 153 -171 377 -59 647 89 215 280 398 452 434
52 11 137 4 182 -14z"/>
<path d="M15175 8654 c-420 -65 -778 -279 -1039 -622 -215 -282 -349 -692
-363 -1107 -20 -605 267 -1063 781 -1244 132 -47 234 -61 430 -61 265 0 461
33 654 108 51 20 91 41 89 47 -3 5 -46 137 -96 293 -50 155 -93 282 -95 282
-3 0 -46 -11 -98 -25 -463 -123 -830 47 -928 429 -55 217 -25 483 79 701 98
205 241 346 446 441 120 55 188 67 355 61 161 -6 212 -17 331 -73 l80 -38 211
211 211 211 -38 47 c-60 72 -191 172 -290 220 -155 75 -327 112 -555 119 -74
3 -148 2 -165 0z"/>
<path d="M9340 8627 c0 -2 -104 -525 -231 -1163 l-232 -1159 -1 -140 c-1 -122
2 -149 22 -208 60 -173 186 -282 382 -333 51 -13 92 -15 195 -11 149 6 256 30
355 80 l65 32 17 190 c9 105 18 213 21 240 l5 50 -121 0 c-112 0 -126 2 -166
25 -59 34 -81 80 -81 169 0 46 32 238 95 570 52 276 95 503 95 506 0 3 77 5
170 5 94 0 170 3 170 6 0 3 25 115 55 249 30 135 55 249 55 254 0 7 -65 12
-173 13 l-173 3 62 295 c35 162 63 303 64 313 0 16 -22 17 -325 17 -179 0
-325 -1 -325 -3z"/>
<path d="M1980 8513 c0 -10 -550 -2856 -556 -2875 -5 -17 15 -18 323 -18 l328
0 194 1013 c187 975 208 1080 210 1047 1 -8 39 -469 86 -1023 47 -554 85
-1014 85 -1022 0 -13 45 -15 313 -15 l312 0 449 1005 c247 553 451 1004 452
1002 3 -3 -356 -1926 -371 -1984 l-5 -23 340 0 340 0 5 23 c13 54 535 2848
535 2862 0 13 -59 15 -533 15 l-533 0 -394 -871 c-217 -478 -397 -872 -400
-874 -3 -2 -32 364 -64 813 -31 449 -60 843 -63 875 l-6 57 -523 0 c-288 0
-524 -3 -524 -7z"/>
<path d="M5804 8030 c-211 -11 -576 -60 -597 -79 -9 -9 -107 -504 -101 -510 2
-2 104 8 226 22 356 43 461 50 643 44 198 -7 244 -17 295 -66 53 -51 72 -138
51 -235 l-6 -29 -255 -2 c-212 -2 -276 -6 -380 -24 -448 -80 -727 -294 -847
-652 -84 -252 -62 -458 68 -631 87 -117 215 -198 379 -239 76 -19 102 -21 240
-16 227 9 376 47 482 121 21 15 23 13 61 -49 l40 -65 307 0 308 0 10 48 c15
68 259 1304 273 1382 20 113 16 332 -9 432 -73 298 -287 474 -646 534 -115 19
-347 25 -542 14z m342 -1330 l61 -12 -24 -126 c-34 -182 -46 -214 -110 -282
-62 -68 -158 -121 -250 -140 -129 -27 -272 10 -329 86 -26 34 -29 45 -29 113
0 65 4 84 30 129 59 108 198 208 329 238 68 15 222 12 322 -6z"/>
<path d="M8035 8030 c-463 -52 -735 -244 -805 -567 -43 -200 -33 -372 30 -499
48 -98 103 -145 249 -215 69 -33 213 -108 320 -167 152 -84 200 -115 222 -145
69 -94 38 -230 -64 -283 -19 -10 -89 -18 -225 -25 -230 -11 -446 0 -592 32
-52 11 -104 21 -115 22 -18 2 -23 -19 -64 -236 -28 -147 -41 -241 -35 -247 13
-12 238 -57 356 -69 153 -17 624 -14 738 4 410 67 646 279 709 639 16 87 13
242 -4 311 -50 195 -168 296 -606 517 -145 73 -173 96 -204 171 -33 80 -7 151
75 197 45 25 46 25 295 24 188 0 269 -4 325 -16 41 -9 78 -13 81 -10 6 7 149
463 149 475 0 9 -152 54 -242 73 -87 18 -472 27 -593 14z"/>
<path d="M16866 8029 c-158 -8 -350 -30 -505 -58 l-95 -17 -49 -253 c-27 -139
-46 -255 -43 -259 3 -3 106 7 228 22 328 39 407 45 573 46 324 0 406 -39 414
-198 2 -39 0 -88 -3 -106 l-7 -35 -157 6 c-596 22 -1021 -141 -1225 -468 -123
-198 -177 -457 -132 -634 42 -166 161 -308 325 -389 134 -66 209 -79 395 -72
220 8 377 46 474 116 l29 20 41 -65 40 -65 308 0 308 0 145 728 145 727 0 175
c0 202 -10 254 -77 390 -108 223 -343 354 -697 390 -113 11 -209 11 -435 -1z
m302 -1323 c52 -8 96 -16 98 -19 3 -3 -8 -73 -25 -157 -33 -168 -58 -220 -135
-286 -121 -104 -330 -143 -459 -86 -52 23 -102 79 -118 132 -36 118 79 294
245 375 107 52 232 65 394 41z"/>
<path d="M11095 8019 c-525 -67 -883 -448 -1011 -1074 -23 -117 -26 -145 -21
-280 7 -209 42 -357 126 -523 145 -288 404 -464 753 -512 105 -15 492 -15 618
0 196 22 374 60 419 89 11 7 117 489 108 497 -1 1 -23 -2 -49 -6 -232 -44
-883 -62 -1005 -28 -181 50 -271 153 -289 331 -4 36 -3 90 0 121 l7 56 713 0
713 0 17 98 c66 381 41 671 -76 870 -18 32 -67 92 -110 134 -64 64 -93 85
-180 127 -113 54 -224 85 -363 101 -106 12 -272 11 -370 -1z m360 -488 c27
-12 60 -32 73 -44 61 -56 100 -200 85 -307 l-8 -55 -404 -3 -404 -2 6 37 c4
20 24 75 47 121 69 144 189 241 336 271 82 16 212 8 269 -18z"/>
<path d="M18267 6847 c-120 -644 -221 -1184 -224 -1199 l-5 -28 331 0 c182 0
331 2 331 4 0 35 207 1115 226 1176 95 310 231 505 396 567 24 8 88 21 143 27
l100 11 66 235 c37 129 76 268 87 309 l21 74 -92 -6 c-200 -12 -369 -78 -498
-194 l-37 -33 -28 115 -28 115 -286 0 -285 0 -218 -1173z"/>
<path d="M12635 7978 c-11 -51 -435 -2333 -435 -2345 0 -10 67 -13 324 -13
l324 0 6 28 c3 15 49 261 102 547 105 572 130 667 221 846 112 221 236 311
448 327 l88 7 82 305 c45 168 79 308 75 313 -10 11 -196 -11 -279 -34 -96 -26
-212 -86 -279 -145 -35 -31 -54 -41 -57 -32 -2 7 -11 42 -20 78 -9 36 -21 82
-26 103 l-10 37 -279 0 -280 0 -5 -22z"/>
<path d="M23255 4347 c-62 -21 -97 -42 -136 -84 -55 -57 -72 -98 -77 -184 -4
-66 -1 -84 20 -130 52 -113 132 -169 254 -177 93 -6 158 15 222 73 66 60 96
127 96 220 0 159 -117 282 -278 291 -34 2 -79 -2 -101 -9z m180 -61 c65 -30
111 -83 131 -152 47 -161 -65 -314 -230 -314 -77 0 -131 24 -177 79 -66 76
-79 188 -33 279 58 116 192 163 309 108z"/>
<path d="M23220 4059 l0 -170 28 3 c26 3 27 5 30 76 3 71 3 72 30 72 24 0 34
-11 72 -75 38 -65 48 -75 72 -75 28 0 28 1 14 28 -8 15 -28 47 -45 71 -30 44
-32 61 -7 61 7 0 22 10 34 23 32 34 30 100 -3 132 -22 23 -31 25 -125 25
l-100 0 0 -171z m178 115 c25 -17 29 -56 8 -73 -8 -7 -40 -15 -70 -18 l-56 -6
0 57 0 56 48 0 c27 0 57 -7 70 -16z"/>
</g>
</svg>
