<?xml version="1.0" standalone="no"?>
<!DOCTYPE svg PUBLIC "-//W3C//DTD SVG 20010904//EN"
 "http://www.w3.org/TR/2001/REC-SVG-20010904/DTD/svg10.dtd">
<svg version="1.0" xmlns="http://www.w3.org/2000/svg"
 width="400.000000pt" height="400.000000pt" viewBox="0 0 400.000000 400.000000"
 preserveAspectRatio="xMidYMid meet">

<g transform="translate(0.000000,400.000000) scale(0.100000,-0.100000)"
fill="#000000" stroke="none">
<path d="M1908 3160 c-271 -42 -478 -287 -478 -565 0 -251 154 -461 400 -546
92 -32 248 -32 340 0 97 34 168 78 235 145 295 299 176 804 -222 941 -79 27
-193 37 -275 25z m233 -76 c91 -27 151 -64 219 -133 200 -204 200 -509 0 -712
-100 -102 -218 -152 -360 -152 -142 0 -260 50 -360 152 -201 203 -201 508 0
712 68 69 118 100 210 130 72 23 217 25 291 3z"/>
<path d="M1805 1826 c-334 -64 -615 -257 -788 -541 -49 -80 -102 -209 -127
-305 -25 -96 -26 -136 -4 -144 25 -10 41 10 49 62 9 64 58 208 96 284 50 98
106 176 198 271 411 426 1090 437 1518 24 96 -93 169 -190 222 -295 38 -76 87
-220 96 -284 8 -52 24 -72 49 -62 23 9 20 53 -9 163 -85 316 -308 581 -610
727 -165 79 -275 105 -465 110 -103 2 -179 -1 -225 -10z"/>
</g>
</svg>
