<?xml version="1.0" standalone="no"?>
<!DOCTYPE svg PUBLIC "-//W3C//DTD SVG 20010904//EN"
 "http://www.w3.org/TR/2001/REC-SVG-20010904/DTD/svg10.dtd">
<svg version="1.0" xmlns="http://www.w3.org/2000/svg"
 width="511.000000pt" height="356.000000pt" viewBox="0 0 511.000000 356.000000"
 preserveAspectRatio="xMidYMid meet">

<g transform="translate(0.000000,356.000000) scale(0.100000,-0.100000)"
fill="#000000" stroke="none">
<path d="M234 3531 c-47 -12 -133 -62 -160 -94 -14 -17 -36 -52 -50 -78 l-24
-48 0 -1532 0 -1531 32 -60 c35 -66 67 -96 142 -136 l51 -27 2325 0 2325 0 51
27 c76 40 107 70 145 140 l34 63 0 1525 0 1525 -34 63 c-38 70 -69 100 -145
140 l-51 27 -2305 2 c-1268 0 -2319 -2 -2336 -6z m642 -977 c15 -11 37 -33 48
-48 21 -27 21 -39 24 -617 l2 -589 25 0 c19 0 27 9 43 53 11 28 113 299 226
602 123 328 215 559 229 573 66 73 182 67 242 -12 56 -73 62 -49 -210 -778
-137 -365 -259 -678 -273 -697 -42 -57 -69 -63 -297 -59 -223 3 -229 5 -279
72 -21 27 -21 39 -24 615 l-2 587 -44 12 c-108 29 -151 167 -79 253 44 52 73
59 215 57 110 -3 130 -6 154 -24z m1282 -1 c39 -29 62 -64 69 -106 4 -28 -33
-193 -162 -709 l-168 -673 -39 -37 c-66 -64 -155 -64 -219 1 -68 67 -72 38
116 789 180 723 178 716 250 748 40 19 120 12 153 -13z m901 12 c46 -8 97 -23
115 -33 105 -61 103 -216 -4 -274 -30 -17 -45 -18 -110 -11 -41 4 -124 8 -185
7 -94 0 -116 -3 -152 -22 -46 -24 -73 -64 -73 -109 0 -40 68 -103 215 -199
147 -96 241 -188 287 -281 31 -63 33 -74 33 -169 0 -98 -1 -103 -42 -186 -76
-153 -212 -257 -385 -292 -128 -26 -272 -15 -434 33 -113 33 -154 78 -154 166
0 79 43 134 121 155 33 9 54 6 136 -17 184 -51 323 -34 397 47 39 43 51 77 42
114 -9 36 -91 112 -182 167 -189 117 -289 217 -334 336 -18 48 -21 73 -18 148
3 76 9 100 36 157 89 184 255 275 512 277 52 1 133 -6 179 -14z m1337 -11 c15
-11 37 -33 48 -48 21 -27 21 -36 21 -726 0 -690 0 -699 -21 -726 -39 -53 -71
-69 -134 -69 -63 0 -95 16 -134 69 -19 25 -21 44 -24 217 l-3 189 -230 0 -229
0 -104 -209 c-110 -220 -137 -255 -201 -267 -102 -19 -195 57 -195 160 0 27
82 200 334 703 184 368 344 678 357 690 42 39 67 42 281 40 191 -2 209 -4 234
-23z"/>
<path d="M3970 2020 l-120 -240 150 0 150 0 0 240 0 240 -30 0 c-29 0 -33 -7
-150 -240z"/>
</g>
</svg>
