<?xml version="1.0" encoding="UTF-8"?>
<svg xmlns="http://www.w3.org/2000/svg" xmlns:xlink="http://www.w3.org/1999/xlink" width="6504px" height="1889px" viewBox="0 0 6504 1889" version="1.1">
<g id="surface1">
<path style=" stroke:none;fill-rule:nonzero;fill:rgb(0%,0%,0%);fill-opacity:1;" d="M 0 941.308594 L 0 1850.152344 L 605.765625 1850.152344 L 605.765625 1301.660156 C 605.765625 998.710938 618.519531 765.921875 631.269531 781.863281 C 647.214844 801 730.105469 1046.542969 816.191406 1333.546875 L 972.410156 1850.152344 L 1399.632812 1850.152344 L 1501.660156 1521.695312 C 1555.859375 1343.117188 1635.566406 1094.382812 1673.824219 973.203125 L 1747.152344 749.976562 L 1750.339844 1298.46875 L 1753.53125 1850.152344 L 2359.292969 1850.152344 L 2359.292969 32.472656 L 1995.835938 32.472656 C 1508.035156 32.472656 1508.035156 32.472656 1339.058594 619.230469 C 1214.71875 1046.542969 1192.402344 1110.320312 1170.082031 1081.625 C 1160.515625 1068.871094 1058.496094 724.464844 966.035156 376.871094 C 937.339844 274.828125 879.957031 156.835938 835.320312 112.191406 C 758.800781 35.65625 739.667969 32.472656 379.402344 32.472656 L 0 32.472656 Z M 0 941.308594 "/>
<path style=" stroke:none;fill-rule:nonzero;fill:rgb(0%,0%,0%);fill-opacity:1;" d="M 2582.472656 941.308594 L 2582.472656 1850.152344 L 2898.109375 1850.152344 C 3156.355469 1850.152344 3223.304688 1840.585938 3287.070312 1789.566406 C 3331.707031 1754.484375 3459.234375 1521.695312 3586.765625 1244.257812 L 3809.945312 756.351562 L 3819.503906 1304.851562 L 3825.882812 1850.152344 L 4431.648438 1850.152344 L 4431.648438 32.472656 L 4103.261719 32.472656 C 3695.164062 32.472656 3704.726562 22.902344 3440.105469 609.667969 C 3331.707031 845.644531 3232.871094 1049.734375 3216.929688 1068.871094 C 3200.988281 1084.8125 3188.234375 877.53125 3188.234375 565.019531 L 3188.234375 32.472656 L 2582.472656 32.472656 Z M 2582.472656 941.308594 "/>
<path style=" stroke:none;fill-rule:nonzero;fill:rgb(0%,0%,0%);fill-opacity:1;" d="M 4603.8125 118.570312 C 4616.5625 169.59375 4680.328125 287.582031 4744.09375 383.25 C 4836.554688 517.1875 4906.695312 580.964844 5062.917969 660.6875 L 5266.960938 765.921875 L 6504 765.921875 L 6504 654.308594 C 6504 434.273438 6347.773438 182.347656 6146.917969 77.113281 C 6079.960938 42.039062 5895.046875 32.472656 5321.164062 32.472656 L 4584.683594 32.472656 Z M 4603.8125 118.570312 "/>
<path style=" stroke:none;fill-rule:nonzero;fill:rgb(0%,0%,0%);fill-opacity:1;" d="M 4654.824219 1355.871094 L 4654.824219 1850.152344 L 5260.585938 1850.152344 L 5260.585938 1282.523438 L 5671.871094 1269.769531 C 6070.402344 1260.203125 6089.527344 1257.011719 6217.058594 1164.535156 C 6290.390625 1110.320312 6379.660156 1021.03125 6414.730469 963.636719 L 6478.496094 861.585938 L 4654.824219 861.585938 Z M 4654.824219 1355.871094 "/>
</g>
</svg>
